<mxfile host="Electron" modified="2024-04-05T03:46:32.389Z" agent="Mozilla/5.0 (Windows NT 10.0; Win64; x64) AppleWebKit/537.36 (KHTML, like Gecko) draw.io/24.1.0 Chrome/120.0.6099.109 Electron/28.1.0 Safari/537.36" etag="PWKUBSC4Zo7BLJAvTYIv" version="24.1.0" type="device">
  <diagram name="Page-1" id="bxpfgBv9mY1Zm4KRTevm">
    <mxGraphModel dx="1050" dy="621" grid="1" gridSize="10" guides="1" tooltips="1" connect="1" arrows="1" fold="1" page="1" pageScale="1" pageWidth="850" pageHeight="1100" math="0" shadow="0">
      <root>
        <mxCell id="0" />
        <mxCell id="1" parent="0" />
        <mxCell id="BlgBnc0MxDNNioyFhQXO-3" value="" style="edgeStyle=orthogonalEdgeStyle;rounded=0;orthogonalLoop=1;jettySize=auto;html=1;" edge="1" parent="1" source="BlgBnc0MxDNNioyFhQXO-1" target="BlgBnc0MxDNNioyFhQXO-2">
          <mxGeometry relative="1" as="geometry" />
        </mxCell>
        <mxCell id="BlgBnc0MxDNNioyFhQXO-1" value="Press Button" style="rounded=0;whiteSpace=wrap;html=1;" vertex="1" parent="1">
          <mxGeometry x="365" y="70" width="120" height="60" as="geometry" />
        </mxCell>
        <mxCell id="BlgBnc0MxDNNioyFhQXO-5" value="" style="edgeStyle=orthogonalEdgeStyle;rounded=0;orthogonalLoop=1;jettySize=auto;html=1;" edge="1" parent="1" source="BlgBnc0MxDNNioyFhQXO-2" target="BlgBnc0MxDNNioyFhQXO-4">
          <mxGeometry relative="1" as="geometry" />
        </mxCell>
        <mxCell id="BlgBnc0MxDNNioyFhQXO-2" value="Play Animation" style="whiteSpace=wrap;html=1;rounded=0;" vertex="1" parent="1">
          <mxGeometry x="365" y="160" width="120" height="60" as="geometry" />
        </mxCell>
        <mxCell id="BlgBnc0MxDNNioyFhQXO-7" value="" style="edgeStyle=orthogonalEdgeStyle;rounded=0;orthogonalLoop=1;jettySize=auto;html=1;" edge="1" parent="1" source="BlgBnc0MxDNNioyFhQXO-4" target="BlgBnc0MxDNNioyFhQXO-6">
          <mxGeometry relative="1" as="geometry" />
        </mxCell>
        <mxCell id="BlgBnc0MxDNNioyFhQXO-4" value="Avtive Hit Box" style="whiteSpace=wrap;html=1;rounded=0;" vertex="1" parent="1">
          <mxGeometry x="365" y="250" width="120" height="60" as="geometry" />
        </mxCell>
        <mxCell id="BlgBnc0MxDNNioyFhQXO-11" value="" style="edgeStyle=orthogonalEdgeStyle;rounded=0;orthogonalLoop=1;jettySize=auto;html=1;" edge="1" parent="1" source="BlgBnc0MxDNNioyFhQXO-6" target="BlgBnc0MxDNNioyFhQXO-10">
          <mxGeometry relative="1" as="geometry" />
        </mxCell>
        <mxCell id="BlgBnc0MxDNNioyFhQXO-14" value="" style="edgeStyle=orthogonalEdgeStyle;rounded=0;orthogonalLoop=1;jettySize=auto;html=1;" edge="1" parent="1" source="BlgBnc0MxDNNioyFhQXO-6" target="BlgBnc0MxDNNioyFhQXO-13">
          <mxGeometry relative="1" as="geometry" />
        </mxCell>
        <mxCell id="BlgBnc0MxDNNioyFhQXO-6" value="Hit Box Hit" style="rhombus;whiteSpace=wrap;html=1;rounded=0;" vertex="1" parent="1">
          <mxGeometry x="385" y="340" width="80" height="80" as="geometry" />
        </mxCell>
        <mxCell id="BlgBnc0MxDNNioyFhQXO-10" value="Null" style="whiteSpace=wrap;html=1;rounded=0;" vertex="1" parent="1">
          <mxGeometry x="525" y="350" width="120" height="60" as="geometry" />
        </mxCell>
        <mxCell id="BlgBnc0MxDNNioyFhQXO-13" value="Object HP minus" style="whiteSpace=wrap;html=1;rounded=0;" vertex="1" parent="1">
          <mxGeometry x="365" y="460" width="120" height="60" as="geometry" />
        </mxCell>
      </root>
    </mxGraphModel>
  </diagram>
</mxfile>
